<svg width="159" height="32" viewBox="0 0 159 32" fill="none" xmlns="http://www.w3.org/2000/svg">
<g clip-path="url(#clip0_2425_1184)">
<path d="M31.9768 16.0203C31.9768 7.18697 24.8101 0.00363541 15.9601 0.00363541C7.11014 0.00363541 -0.0231934 7.15364 -0.0231934 16.0203C-0.0231934 24.837 7.12681 32.0036 15.9601 32.0036C24.7935 32.0036 31.9768 24.837 31.9768 16.0203ZM15.9601 29.287C8.72681 29.287 2.89347 23.437 2.89347 16.0036C2.89347 8.58697 8.72681 2.7203 15.9601 2.7203C23.2435 2.7203 29.0268 8.60364 29.0268 16.0036C29.0601 23.4536 23.2435 29.287 15.9601 29.287Z" fill="currentColor" fill-opacity="0.9"/>
<path d="M17.6402 25.5V22.4439C17.6402 20.1388 17.3553 19.4655 16.4746 17.549L11.8638 7.5H8.59998L14.506 20.346V25.5H17.6402ZM19.6866 16.2021L23.5204 7.5H20.3343L16.5006 16.2021H19.6866Z" fill="currentColor" fill-opacity="0.9"/>
<path d="M154.344 25.59H151.012V11.506H154.26L154.344 14.306H154.428C154.82 13.3727 155.389 12.6353 156.136 12.094C156.882 11.5527 157.732 11.254 158.684 11.198V14.334C157.657 14.278 156.789 14.4647 156.08 14.894C155.389 15.3047 154.81 15.9393 154.344 16.798V25.59Z" fill="currentColor" fill-opacity="0.9"/>
<path d="M141.303 19.738C141.359 20.914 141.649 21.7913 142.171 22.37C142.694 22.9487 143.571 23.238 144.803 23.238C145.625 23.238 146.427 23.1073 147.211 22.846C148.014 22.5847 148.677 22.2767 149.199 21.922V24.638C148.714 24.974 148.079 25.2633 147.295 25.506C146.511 25.7487 145.587 25.87 144.523 25.87C142.377 25.87 140.725 25.2727 139.567 24.078C138.429 22.8833 137.859 21.054 137.859 18.59C137.859 17.526 137.981 16.546 138.223 15.65C138.466 14.754 138.83 13.9793 139.315 13.326C139.819 12.654 140.445 12.1407 141.191 11.786C141.957 11.4127 142.843 11.226 143.851 11.226C144.691 11.226 145.447 11.3473 146.119 11.59C146.791 11.8327 147.361 12.2247 147.827 12.766C148.313 13.3073 148.686 14.0073 148.947 14.866C149.209 15.706 149.339 16.742 149.339 17.974V19.738H141.303ZM143.795 13.858C142.993 13.858 142.386 14.1473 141.975 14.726C141.565 15.3047 141.341 16.154 141.303 17.274H145.951V16.994C145.951 16.546 145.914 16.1353 145.839 15.762C145.783 15.37 145.671 15.034 145.503 14.754C145.335 14.474 145.111 14.2593 144.831 14.11C144.551 13.942 144.206 13.858 143.795 13.858Z" fill="currentColor" fill-opacity="0.9"/>
<path d="M133.522 8.42599V11.506H137.022V14.138H133.522V21.39C133.522 21.9127 133.68 22.3513 133.998 22.706C134.334 23.0607 134.856 23.238 135.566 23.238C135.846 23.238 136.088 23.2193 136.294 23.182C136.518 23.126 136.704 23.07 136.854 23.014C137.022 22.9393 137.171 22.8647 137.302 22.79V25.506C137.096 25.5807 136.872 25.646 136.63 25.702C136.406 25.7393 136.135 25.7767 135.818 25.814C135.519 25.8513 135.164 25.87 134.754 25.87C133.988 25.87 133.316 25.758 132.738 25.534C132.159 25.31 131.683 25.002 131.31 24.61C130.936 24.1993 130.656 23.7233 130.47 23.182C130.283 22.622 130.19 22.0153 130.19 21.362V14.138H128.426V11.506H130.19V8.42599H133.522Z" fill="currentColor" fill-opacity="0.9"/>
<path d="M122.551 25.87C121.73 25.87 121.011 25.8047 120.395 25.674C119.798 25.5433 119.303 25.394 118.911 25.226C118.426 25.0207 118.034 24.7967 117.735 24.554V21.838C117.81 21.8753 117.959 21.9687 118.183 22.118C118.407 22.2673 118.697 22.426 119.051 22.594C119.425 22.762 119.854 22.9113 120.339 23.042C120.843 23.1727 121.403 23.238 122.019 23.238C122.971 23.238 123.671 23.1073 124.119 22.846C124.567 22.566 124.791 22.1553 124.791 21.614C124.791 20.998 124.539 20.5407 124.035 20.242C123.531 19.9433 122.794 19.7287 121.823 19.598C120.442 19.4113 119.397 18.9913 118.687 18.338C117.997 17.666 117.651 16.7047 117.651 15.454C117.651 14.838 117.763 14.278 117.987 13.774C118.23 13.2513 118.575 12.8033 119.023 12.43C119.471 12.0567 120.022 11.7673 120.675 11.562C121.347 11.338 122.113 11.226 122.971 11.226C123.662 11.226 124.259 11.2727 124.763 11.366C125.286 11.4407 125.715 11.5247 126.051 11.618C126.443 11.73 126.779 11.8607 127.059 12.01V14.726C127.003 14.6887 126.873 14.6233 126.667 14.53C126.481 14.418 126.229 14.306 125.911 14.194C125.594 14.082 125.211 13.9887 124.763 13.914C124.334 13.8207 123.849 13.774 123.307 13.774C121.702 13.774 120.899 14.2873 120.899 15.314C120.899 15.65 120.965 15.9207 121.095 16.126C121.245 16.3313 121.431 16.49 121.655 16.602C121.898 16.714 122.169 16.798 122.467 16.854C122.785 16.91 123.121 16.966 123.475 17.022C124.894 17.2273 126.005 17.666 126.807 18.338C127.61 18.9913 128.011 19.934 128.011 21.166C128.011 22.006 127.881 22.7247 127.619 23.322C127.358 23.9007 126.985 24.386 126.499 24.778C126.033 25.1513 125.463 25.422 124.791 25.59C124.119 25.7767 123.373 25.87 122.551 25.87Z" fill="currentColor" fill-opacity="0.9"/>
<path d="M112.76 19.178H112.284C110.847 19.178 109.82 19.346 109.204 19.682C108.588 19.9993 108.28 20.5593 108.28 21.362C108.28 21.9593 108.448 22.4447 108.784 22.818C109.139 23.1727 109.671 23.35 110.38 23.35C110.978 23.35 111.472 23.2473 111.864 23.042C112.256 22.818 112.555 22.5473 112.76 22.23V19.178ZM116.092 22.146C116.092 23.3033 116.148 24.4513 116.26 25.59H113.012C112.956 25.4407 112.9 25.2633 112.844 25.058C112.807 24.8527 112.779 24.6567 112.76 24.47H112.62C112.303 24.806 111.892 25.114 111.388 25.394C110.884 25.6553 110.147 25.786 109.176 25.786C107.888 25.786 106.843 25.4033 106.04 24.638C105.256 23.8727 104.864 22.7713 104.864 21.334C104.864 19.8967 105.452 18.786 106.628 18.002C107.804 17.1993 109.671 16.798 112.228 16.798H112.76V16.014C112.76 15.2487 112.574 14.7167 112.2 14.418C111.827 14.1007 111.239 13.942 110.436 13.942C110.007 13.942 109.568 13.9887 109.12 14.082C108.672 14.1567 108.243 14.2593 107.832 14.39C107.44 14.5207 107.067 14.67 106.712 14.838C106.376 15.006 106.096 15.174 105.872 15.342V12.57C106.376 12.2713 107.048 11.982 107.888 11.702C108.728 11.422 109.708 11.282 110.828 11.282C112.602 11.282 113.918 11.6367 114.776 12.346C115.654 13.0553 116.092 14.2687 116.092 15.986V22.146Z" fill="currentColor" fill-opacity="0.9"/>
<path d="M95.9068 25.59H92.5748V15.65C92.5748 15.1087 92.4628 14.7167 92.2388 14.474C92.0148 14.2127 91.6042 14.082 91.0068 14.082C90.4095 14.082 89.8962 14.222 89.4668 14.502C89.0375 14.782 88.6642 15.1087 88.3468 15.482V25.59H85.0148V11.506H88.2628L88.3468 12.682H88.5148C88.8508 12.346 89.2802 12.0287 89.8028 11.73C90.3255 11.4313 91.0815 11.282 92.0708 11.282C93.8442 11.282 94.9922 11.8793 95.5148 13.074C95.9255 12.6073 96.4575 12.1967 97.1108 11.842C97.7828 11.4687 98.6695 11.282 99.7708 11.282C101.133 11.282 102.085 11.6087 102.627 12.262C103.187 12.8967 103.467 13.914 103.467 15.314V25.59H100.135V15.65C100.135 15.1087 100.023 14.7167 99.7988 14.474C99.5748 14.2127 99.1642 14.082 98.5668 14.082C97.9695 14.082 97.4562 14.222 97.0268 14.502C96.5975 14.782 96.2242 15.1087 95.9068 15.482V25.59Z" fill="currentColor" fill-opacity="0.9"/>
<path d="M71.028 25.59V6.13H74.36V13.186C75.2373 11.8793 76.432 11.226 77.944 11.226C78.7467 11.226 79.4747 11.3847 80.128 11.702C80.8 12.0193 81.3693 12.4953 81.836 13.13C82.3213 13.746 82.6947 14.5113 82.956 15.426C83.2173 16.3407 83.348 17.386 83.348 18.562C83.348 19.738 83.2173 20.7833 82.956 21.698C82.6947 22.594 82.3213 23.3593 81.836 23.994C81.3693 24.61 80.8 25.0767 80.128 25.394C79.4747 25.7113 78.7467 25.87 77.944 25.87C76.376 25.87 75.1533 25.1793 74.276 23.798L74.108 25.59H71.028ZM77.104 13.858C76.2267 13.858 75.5547 14.194 75.088 14.866C74.64 15.538 74.3973 16.602 74.36 18.058V19.01C74.3973 20.4847 74.64 21.558 75.088 22.23C75.5547 22.902 76.2267 23.238 77.104 23.238C78.056 23.238 78.756 22.874 79.204 22.146C79.6707 21.3993 79.904 20.2047 79.904 18.562C79.904 16.9193 79.6707 15.7247 79.204 14.978C78.756 14.2313 78.056 13.858 77.104 13.858Z" fill="currentColor" fill-opacity="0.9"/>
<path d="M61.3197 19.738C61.3757 20.914 61.665 21.7913 62.1877 22.37C62.7103 22.9487 63.5877 23.238 64.8197 23.238C65.641 23.238 66.4437 23.1073 67.2277 22.846C68.0303 22.5847 68.693 22.2767 69.2157 21.922V24.638C68.7303 24.974 68.0957 25.2633 67.3117 25.506C66.5277 25.7487 65.6037 25.87 64.5397 25.87C62.393 25.87 60.741 25.2727 59.5837 24.078C58.445 22.8833 57.8757 21.054 57.8757 18.59C57.8757 17.526 57.997 16.546 58.2397 15.65C58.4823 14.754 58.8463 13.9793 59.3317 13.326C59.8357 12.654 60.461 12.1407 61.2077 11.786C61.973 11.4127 62.8597 11.226 63.8677 11.226C64.7077 11.226 65.4637 11.3473 66.1357 11.59C66.8077 11.8327 67.377 12.2247 67.8437 12.766C68.329 13.3073 68.7023 14.0073 68.9637 14.866C69.225 15.706 69.3557 16.742 69.3557 17.974V19.738H61.3197ZM63.8117 13.858C63.009 13.858 62.4023 14.1473 61.9917 14.726C61.581 15.3047 61.357 16.154 61.3197 17.274H65.9677V16.994C65.9677 16.546 65.9303 16.1353 65.8557 15.762C65.7997 15.37 65.6877 15.034 65.5197 14.754C65.3517 14.474 65.1277 14.2593 64.8477 14.11C64.5677 13.942 64.2223 13.858 63.8117 13.858Z" fill="currentColor" fill-opacity="0.9"/>
<path d="M40.66 25.59L38 6.13H41.192L43.152 21.222L45.644 6.13H49.844L52.28 21.166L54.296 6.13H57.18L54.52 25.59H49.844L47.604 10.834L45.196 25.59H40.66Z" fill="currentColor" fill-opacity="0.9"/>
</g>
<defs>
<clipPath id="clip0_2425_1184">
<rect width="158.684" height="32" fill="white"/>
</clipPath>
</defs>
</svg>
