<svg width="32" height="32" viewBox="0 0 32 32" fill="none" xmlns="http://www.w3.org/2000/svg">
<g clip-path="url(#clip0_2025_200)">
<path d="M31.9768 16.0203C31.9768 7.18697 24.8101 0.00363922 15.9601 0.00363922C7.11013 0.00363922 -0.0232048 7.15364 -0.0232048 16.0203C-0.0232048 24.837 7.1268 32.0036 15.9601 32.0036C24.7935 32.0036 31.9768 24.837 31.9768 16.0203ZM15.9601 29.287C8.7268 29.287 2.89346 23.437 2.89346 16.0036C2.89346 8.58697 8.7268 2.72031 15.9601 2.72031C23.2435 2.72031 29.0268 8.60364 29.0268 16.0036C29.0601 23.4536 23.2435 29.287 15.9601 29.287Z" fill="black" fill-opacity="0.9"/>
<path d="M18.0622 9.46384H16.6004C14.0944 9.46384 12.8414 10.7169 12.8414 12.5964C12.8414 14.6847 13.6767 15.7289 15.5562 16.9819L17.0181 18.0261L12.8414 24.5H9.49998L13.4679 18.6526C11.1707 16.9819 9.91766 15.5201 9.91766 12.8052C9.91766 9.46384 12.2148 7.16665 16.6004 7.16665H20.9859V24.5H18.0622V9.46384Z" fill="black" fill-opacity="0.9"/>
</g>
<defs>
<clipPath id="clip0_2025_200">
<rect width="32" height="32" fill="white"/>
</clipPath>
</defs>
</svg>
