<svg width="32" height="32" viewBox="0 0 32 32" fill="none" xmlns="http://www.w3.org/2000/svg">
<g clip-path="url(#clip0_2426_1295)">
<path d="M31.9768 16.0203C31.9768 7.18697 24.8101 0.00363922 15.9601 0.00363922C7.11014 0.00363922 -0.0231934 7.15364 -0.0231934 16.0203C-0.0231934 24.837 7.12681 32.0036 15.9601 32.0036C24.7935 32.0036 31.9768 24.837 31.9768 16.0203ZM15.9601 29.287C8.72681 29.287 2.89347 23.437 2.89347 16.0036C2.89347 8.58697 8.72681 2.72031 15.9601 2.72031C23.2435 2.72031 29.0268 8.60364 29.0268 16.0036C29.0601 23.4536 23.2435 29.287 15.9601 29.287Z" fill="black" fill-opacity="0.9"/>
<path d="M17.6402 25.5V22.4439C17.6402 20.1388 17.3553 19.4655 16.4746 17.549L11.8638 7.5H8.59998L14.506 20.346V25.5H17.6402ZM19.6866 16.2021L23.5204 7.5H20.3343L16.5006 16.2021H19.6866Z" fill="black" fill-opacity="0.9"/>
</g>
<defs>
<clipPath id="clip0_2426_1295">
<rect width="32" height="32" fill="white"/>
</clipPath>
</defs>
</svg>
