<svg preserveAspectRatio="none" width="100%" height="100%" overflow="visible" style="display: block;" viewBox="0 0 33 32" fill="none" xmlns="http://www.w3.org/2000/svg">
<g id="[&#208;&#175;&#208;&#189;&#208;&#180;&#208;&#181;&#208;&#186;&#209;&#129; B2B: &#208;&#183;&#208;&#189;&#208;&#176;&#208;&#186;, &#209;&#128;&#209;&#131;&#209;&#129;.]">
<g id="Type=White + Black, Safe Area=False">
<path id="stroke" d="M32.9768 16.0203C32.9768 7.18697 25.8101 0.00363719 16.9601 0.00363719C8.11013 0.00363719 0.976794 7.15364 0.976794 16.0203C0.976794 24.837 8.12679 32.0036 16.9601 32.0036C25.7935 32.0036 32.9768 24.837 32.9768 16.0203ZM16.9601 29.287C9.72679 29.287 3.89346 23.437 3.89346 16.0036C3.89346 8.58697 9.72679 2.7203 16.9601 2.7203C24.2435 2.7203 30.0268 8.60364 30.0268 16.0036C30.0601 23.4536 24.2435 29.287 16.9601 29.287Z" fill="var(--fill-0, black)" fill-opacity="0.9"/>
<path id="Vector" d="M18.6402 25.5V22.4439C18.6402 20.1388 18.3553 19.4655 17.4746 17.549L12.8638 7.5H9.59998L15.506 20.346V25.5H18.6402ZM20.6866 16.2021L24.5204 7.5H21.3343L17.5006 16.2021H20.6866Z" fill="var(--fill-0, black)" fill-opacity="0.9"/>
</g>
</g>
</svg>
