<svg width="156" height="32" viewBox="0 0 156 32" fill="none" xmlns="http://www.w3.org/2000/svg">
<g clip-path="url(#clip0_2025_185)">
<path d="M31.9768 16.0203C31.9768 7.18697 24.8101 0.00363541 15.9601 0.00363541C7.11013 0.00363541 -0.0232048 7.15364 -0.0232048 16.0203C-0.0232048 24.837 7.1268 32.0036 15.9601 32.0036C24.7935 32.0036 31.9768 24.837 31.9768 16.0203ZM15.9601 29.287C8.7268 29.287 2.89346 23.437 2.89346 16.0036C2.89346 8.58697 8.7268 2.7203 15.9601 2.7203C23.2435 2.7203 29.0268 8.60364 29.0268 16.0036C29.0601 23.4536 23.2435 29.287 15.9601 29.287Z" fill="black" fill-opacity="0.9"/>
<path d="M18.0622 9.46384H16.6004C14.0944 9.46384 12.8414 10.7169 12.8414 12.5964C12.8414 14.6847 13.6767 15.7289 15.5562 16.9819L17.0181 18.0261L12.8414 24.5H9.49998L13.4679 18.6526C11.1707 16.9819 9.91766 15.5201 9.91766 12.8052C9.91766 9.46384 12.2148 7.16665 16.6004 7.16665H20.9859V24.5H18.0622V9.46384Z" fill="black" fill-opacity="0.9"/>
<path d="M38 6.45175V25.111H43.392C47.7959 25.111 50.4526 23.4219 50.4526 19.7424C50.4526 17.2741 49.1112 15.873 46.6115 15.4213C48.6008 14.9106 49.8899 13.6732 49.8899 11.1526C49.8899 7.9314 47.6585 6.45175 43.5294 6.45175H38ZM43.5556 14.2952H41.2457V8.97894H43.5818C45.5972 8.97894 46.6704 9.64674 46.6704 11.5258C46.6704 13.5161 45.486 14.2952 43.5556 14.2952ZM43.6341 22.5838H41.2457V16.7111H43.6079C46.0487 16.7111 47.1481 17.4836 47.1481 19.5525C47.1481 21.7785 45.8393 22.5838 43.6341 22.5838ZM62.794 24.1944V21.5952C61.7994 22.263 60.1373 22.8523 58.5799 22.8523C56.2438 22.8523 55.3604 21.7523 55.2295 19.5001H62.9249V17.811C62.9249 13.1102 60.8636 11.3424 57.6703 11.3424C53.7768 11.3424 51.925 14.3214 51.925 18.4002C51.925 23.0945 54.2349 25.3794 58.3116 25.3794C60.3532 25.3794 61.8517 24.8426 62.794 24.1944ZM57.6114 13.8631C59.195 13.8631 59.6792 15.179 59.6792 16.8682V17.1366H55.2295C55.308 14.9892 56.0867 13.8631 57.6114 13.8631ZM64.5346 17.1628V17.7259C64.5346 23.0421 66.9231 25.3794 70.4109 25.3794C73.8987 25.3794 76.3918 22.9112 76.3918 18.6163C76.3918 14.0791 74.0884 11.768 71.2419 11.768C69.3115 11.768 67.8654 12.6257 67.139 14.2101C67.5709 10.6681 68.9647 9.5158 72.6684 9.24737C74.2782 9.13607 75.0504 8.89382 75.5869 8.57301V6C75.0242 6.29462 74.2782 6.47794 72.4263 6.61543C66.3603 7.09991 64.5346 10.6681 64.5346 17.1628ZM67.8392 18.6163C67.8392 15.6635 68.7488 14.3214 70.5221 14.3214C72.2366 14.3214 73.1461 15.5522 73.1461 18.6163C73.1461 21.6214 72.1842 22.8523 70.4109 22.8523C68.7488 22.8523 67.8392 21.4839 67.8392 18.6163ZM90.0485 25.111H93.1633L93.1109 11.6109H88.7332L85.8147 20.6001L83.1842 11.6109H78.5381V25.111H81.2538V15.0154L84.1722 25.111H86.7766L90.0485 15.0154V25.111ZM105.937 15.8992C105.937 12.6257 104.268 11.3948 100.891 11.3948C98.7712 11.3948 97.1091 12.0626 96.1407 12.6257V15.2838C96.9979 14.6422 98.8759 13.9416 100.512 13.9416C102.043 13.9416 102.743 14.4785 102.743 15.932V16.6783H102.233C97.3447 16.6783 95.1722 18.2889 95.1722 21.0322C95.1722 23.7689 96.8408 25.3009 99.3078 25.3009C101.186 25.3009 101.991 24.6789 102.606 24.0373H102.743C102.769 24.3843 102.874 24.8426 102.979 25.111H106.094C105.989 24.0111 105.937 22.9112 105.937 21.8113V15.8992ZM102.743 21.8898C102.338 22.4791 101.585 22.9636 100.459 22.9636C99.118 22.9636 98.4506 22.2106 98.4506 21.0584C98.4506 19.5263 99.5499 18.9633 102.285 18.9633H102.743V21.8898ZM114.306 25.3794C115.778 25.3794 116.825 25.111 117.604 24.548V21.9422C116.799 22.5053 115.831 22.8523 114.489 22.8523C112.212 22.8523 111.27 21.0845 111.27 18.2889C111.27 15.3624 112.428 13.8631 114.522 13.8631C115.752 13.8631 116.963 14.2952 117.604 14.6946V11.9841C116.936 11.6109 115.752 11.3424 114.169 11.3424C110.092 11.3424 107.972 14.2625 107.972 18.374C107.972 22.885 110.039 25.3794 114.306 25.3794ZM129.513 14.1315V11.6109H118.808V14.1315H122.564V25.111H125.757V14.1315H129.513ZM140.919 24.1944V21.5952C139.924 22.263 138.262 22.8523 136.705 22.8523C134.369 22.8523 133.485 21.7523 133.355 19.5001H141.05V17.811C141.05 13.1102 138.989 11.3424 135.795 11.3424C131.902 11.3424 130.05 14.3214 130.05 18.4002C130.05 23.0945 132.36 25.3794 136.437 25.3794C138.478 25.3794 139.977 24.8426 140.919 24.1944ZM135.743 13.8631C137.327 13.8631 137.804 15.179 137.804 16.8682V17.1366H133.355C133.433 14.9892 134.212 13.8631 135.743 13.8631ZM146.148 11.6109H143.196V29H146.39V23.5266C147.194 24.7313 148.379 25.3794 149.747 25.3794C152.855 25.3794 155.001 22.885 155.001 18.3479C155.001 13.8369 152.914 11.3424 149.904 11.3424C148.405 11.3424 147.168 12.0364 146.311 13.3524L146.148 11.6109ZM148.942 22.8523C147.253 22.8523 146.39 21.4839 146.39 18.374C146.39 15.2314 147.306 13.8631 149.099 13.8631C150.846 13.8631 151.703 15.2314 151.703 18.3479C151.703 21.4839 150.794 22.8523 148.942 22.8523Z" fill="black" fill-opacity="0.9"/>
</g>
<defs>
<clipPath id="clip0_2025_185">
<rect width="155.001" height="32" fill="white"/>
</clipPath>
</defs>
</svg>
