<svg width="118" height="23" viewBox="0 0 118 23" fill="none" xmlns="http://www.w3.org/2000/svg">
<path d="M0 0.451751V19.111H5.392C9.7959 19.111 12.4526 17.4219 12.4526 13.7424C12.4526 11.2741 11.1112 9.87304 8.61149 9.42129C10.6008 8.91062 11.8899 7.67321 11.8899 5.15258C11.8899 1.9314 9.65848 0.451751 5.52942 0.451751H0ZM5.55559 8.29519H3.24567V2.97894H5.58177C7.59722 2.97894 8.67038 3.64674 8.67038 5.52576C8.67038 7.51608 7.48598 8.29519 5.55559 8.29519ZM5.63411 16.5838H3.24567V10.7111H5.60794C8.04874 10.7111 9.14807 11.4836 9.14807 13.5525C9.14807 15.7785 7.83933 16.5838 5.63411 16.5838ZM24.794 18.1944V15.5952C23.7994 16.263 22.1373 16.8523 20.5799 16.8523C18.2438 16.8523 17.3604 15.7523 17.2295 13.5001H24.9249V11.811C24.9249 7.11016 22.8636 5.34244 19.6703 5.34244C15.7768 5.34244 13.925 8.32138 13.925 12.4002C13.925 17.0945 16.2349 19.3794 20.3116 19.3794C22.3532 19.3794 23.8517 18.8426 24.794 18.1944ZM19.6114 7.86308C21.195 7.86308 21.6792 9.17905 21.6792 10.8682V11.1366H17.2295C17.308 8.98918 18.0867 7.86308 19.6114 7.86308ZM26.5346 11.1628V11.7259C26.5346 17.0421 28.9231 19.3794 32.4109 19.3794C35.8987 19.3794 38.3918 16.9112 38.3918 12.6163C38.3918 8.07913 36.0884 5.768 33.2419 5.768C31.3115 5.768 29.8654 6.62568 29.139 8.21008C29.5709 4.66809 30.9647 3.5158 34.6684 3.24737C36.2782 3.13607 37.0504 2.89382 37.5869 2.57301V0C37.0242 0.29462 36.2782 0.477939 34.4263 0.615429C28.3603 1.09991 26.5346 4.66809 26.5346 11.1628ZM29.8392 12.6163C29.8392 9.66354 30.7488 8.32138 32.5221 8.32138C34.2366 8.32138 35.1461 9.55223 35.1461 12.6163C35.1461 15.6214 34.1842 16.8523 32.4109 16.8523C30.7488 16.8523 29.8392 15.4839 29.8392 12.6163ZM52.0485 19.111H55.1633L55.1109 5.61087H50.7332L47.8147 14.6001L45.1842 5.61087H40.5381V19.111H43.2538V9.01537L46.1722 19.111H48.7766L52.0485 9.01537V19.111ZM67.9366 9.89923C67.9366 6.62568 66.2679 5.39482 62.8914 5.39482C60.7712 5.39482 59.1091 6.06262 58.1407 6.62568V9.2838C58.9979 8.64219 60.8759 7.94165 62.5118 7.94165C64.0431 7.94165 64.7432 8.47851 64.7432 9.93197V10.6783H64.2328C59.3447 10.6783 57.1722 12.2889 57.1722 15.0322C57.1722 17.7689 58.8408 19.3009 61.3078 19.3009C63.1858 19.3009 63.9907 18.6789 64.6058 18.0373H64.7432C64.7694 18.3843 64.8741 18.8426 64.9788 19.111H68.0936C67.9889 18.0111 67.9366 16.9112 67.9366 15.8113V9.89923ZM64.7432 15.8898C64.3375 16.4791 63.585 16.9636 62.4595 16.9636C61.118 16.9636 60.4506 16.2106 60.4506 15.0584C60.4506 13.5263 61.5499 12.9633 64.2852 12.9633H64.7432V15.8898ZM76.3059 19.3794C77.7783 19.3794 78.8252 19.111 79.604 18.548V15.9422C78.7991 16.5053 77.8306 16.8523 76.4892 16.8523C74.2119 16.8523 73.2697 15.0845 73.2697 12.2889C73.2697 9.36237 74.4279 7.86308 76.5219 7.86308C77.7521 7.86308 78.9627 8.29519 79.604 8.69456V5.98406C78.9365 5.61087 77.7521 5.34244 76.1685 5.34244C72.0918 5.34244 69.9716 8.26245 69.9716 12.374C69.9716 16.885 72.0394 19.3794 76.3059 19.3794ZM91.5135 8.13151V5.61087H80.808V8.13151H84.5641V19.111H87.7574V8.13151H91.5135ZM102.919 18.1944V15.5952C101.924 16.263 100.262 16.8523 98.705 16.8523C96.3689 16.8523 95.4855 15.7523 95.3546 13.5001H103.05V11.811C103.05 7.11016 100.989 5.34244 97.7954 5.34244C93.9019 5.34244 92.05 8.32138 92.05 12.4002C92.05 17.0945 94.36 19.3794 98.4367 19.3794C100.478 19.3794 101.977 18.8426 102.919 18.1944ZM97.743 7.86308C99.3266 7.86308 99.8043 9.17905 99.8043 10.8682V11.1366H95.3546C95.4331 8.98918 96.2118 7.86308 97.743 7.86308ZM108.148 5.61087H105.196V23H108.39V17.5266C109.194 18.7313 110.379 19.3794 111.747 19.3794C114.855 19.3794 117.001 16.885 117.001 12.3479C117.001 7.83689 114.914 5.34244 111.904 5.34244C110.405 5.34244 109.168 6.03644 108.311 7.35241L108.148 5.61087ZM110.942 16.8523C109.253 16.8523 108.39 15.4839 108.39 12.374C108.39 9.23143 109.306 7.86308 111.099 7.86308C112.846 7.86308 113.703 9.23143 113.703 12.3479C113.703 15.4839 112.794 16.8523 110.942 16.8523Z" fill="black" fill-opacity="0.9"/>
</svg>
